<svg version="1.1" id="ENGLISH" xmlns="http://www.w3.org/2000/svg" xmlns:xlink="http://www.w3.org/1999/xlink" x="0px" y="0px"
	 width="346.248px" height="70.587px" viewBox="117.248 0 346.248 70.587" enable-background="new 117.248 0 346.248 70.587"
	 xml:space="preserve">
<g>
	<path fill="#002d72" d="M133.928,35.445c0-0.907-0.064-1.148-0.676-1.198l-0.426-0.028c-0.069-0.055-0.05-0.302,0.014-0.306
		c0.735-0.066,1.66-0.1,2.925-0.1c0.857,0,1.673,0.062,2.286,0.344c0.584,0.258,1.034,0.747,1.034,1.532
		c0,0.883-0.571,1.336-1.388,1.679c0,0.123,0.11,0.16,0.259,0.185c0.734,0.123,1.824,0.734,1.824,2.046
		c0,1.422-1.17,2.379-3.62,2.379c-0.394,0-1.061-0.037-1.632-0.037c-0.598,0-1.061,0.024-1.565,0.037
		c-0.081-0.037-0.108-0.233-0.027-0.308l0.246-0.036c0.721-0.111,0.748-0.245,0.748-1.533V35.445 M135.043,37.073
		c0,0.345,0.014,0.368,0.708,0.345c1.388-0.05,2.136-0.417,2.136-1.568c0-1.203-0.993-1.656-2.027-1.656
		c-0.299,0-0.503,0.025-0.626,0.074c-0.136,0.036-0.19,0.099-0.19,0.319V37.073z M135.043,39.918c0,0.44,0.027,1.066,0.286,1.335
		c0.258,0.283,0.667,0.345,1.075,0.345c1.21,0,2.135-0.491,2.135-1.716c0-0.969-0.544-2.097-2.708-2.097
		c-0.734,0-0.789,0.074-0.789,0.318V39.918z"/>
	<path fill="#002d72" d="M149.233,36.651c0-1.11-0.023-1.289-0.708-1.342l-0.291-0.02c-0.069-0.042-0.046-0.23,0.024-0.263
		c0.581,0.022,0.976,0.032,1.464,0.032c0.465,0,0.859-0.01,1.441-0.032c0.07,0.032,0.093,0.221,0.023,0.263l-0.291,0.02
		c-0.686,0.053-0.708,0.231-0.708,1.342v3.727c0,1.109,0.023,1.257,0.708,1.329l0.291,0.031c0.07,0.042,0.047,0.23-0.023,0.263
		c-0.582-0.021-0.976-0.032-1.441-0.032c-0.488,0-0.883,0.011-1.464,0.032c-0.07-0.032-0.093-0.199-0.024-0.263l0.291-0.031
		c0.686-0.072,0.708-0.22,0.708-1.329V36.651"/>
	<path fill="#002d72" d="M155.681,40.398c0,1.1,0.021,1.256,0.653,1.309l0.348,0.031c0.066,0.042,0.044,0.23-0.021,0.263
		c-0.621-0.021-0.99-0.032-1.426-0.032c-0.436,0-0.817,0.011-1.514,0.032c-0.065-0.032-0.087-0.21,0-0.263l0.392-0.031
		c0.621-0.053,0.675-0.209,0.675-1.309V35.72c0-0.325,0-0.335-0.326-0.335h-0.6c-0.468,0-1.066,0.02-1.339,0.262
		c-0.261,0.229-0.37,0.461-0.489,0.721c-0.087,0.064-0.24,0.012-0.284-0.072c0.174-0.472,0.338-1.142,0.414-1.56
		c0.032-0.021,0.174-0.032,0.207,0c0.065,0.334,0.425,0.324,0.926,0.324h4.409c0.588,0,0.686-0.021,0.849-0.294
		c0.055-0.021,0.174-0.009,0.196,0.032c-0.12,0.429-0.196,1.276-0.163,1.591c-0.044,0.085-0.229,0.085-0.283,0.021
		c-0.033-0.263-0.109-0.65-0.272-0.764c-0.25-0.18-0.665-0.262-1.263-0.262h-0.773c-0.326,0-0.315,0.01-0.315,0.355V40.398"/>
	<path fill="#002d72" d="M160.347,36.651c0-1.11-0.023-1.289-0.709-1.342l-0.29-0.02c-0.07-0.042-0.046-0.23,0.024-0.263
		c0.581,0.022,0.976,0.032,1.464,0.032c0.464,0,0.86-0.01,1.44-0.032c0.07,0.032,0.093,0.221,0.024,0.263l-0.292,0.02
		c-0.686,0.053-0.709,0.231-0.709,1.342v3.727c0,1.109,0.024,1.257,0.709,1.329l0.292,0.031c0.069,0.042,0.046,0.23-0.024,0.263
		c-0.58-0.021-0.977-0.032-1.44-0.032c-0.488,0-0.883,0.011-1.464,0.032c-0.07-0.032-0.094-0.199-0.024-0.263l0.29-0.031
		c0.687-0.072,0.709-0.22,0.709-1.329V36.651"/>
	<path fill="#002d72" d="M165.555,42.108c-1.038,0-1.693-0.272-1.928-0.387c-0.148-0.232-0.309-0.977-0.333-1.467
		c0.062-0.074,0.247-0.095,0.296-0.031c0.185,0.533,0.692,1.561,2.125,1.561c1.038,0,1.544-0.577,1.544-1.205
		c0-0.46-0.111-0.975-1.014-1.465l-1.173-0.649c-0.618-0.345-1.334-0.943-1.334-1.802c0-0.994,0.915-1.801,2.521-1.801
		c0.382,0,0.827,0.064,1.148,0.136c0.161,0.043,0.333,0.062,0.432,0.062c0.112,0.253,0.223,0.839,0.223,1.278
		c-0.05,0.063-0.247,0.095-0.309,0.032c-0.161-0.504-0.495-1.184-1.68-1.184c-1.21,0-1.47,0.68-1.47,1.162
		c0,0.607,0.593,1.047,1.05,1.287l0.988,0.523c0.778,0.41,1.544,1.017,1.544,2.01C168.186,41.322,167.161,42.108,165.555,42.108"/>
	<path fill="#002d72" d="M171.772,38.587c-0.54,0-0.563,0.021-0.563,0.336v1.476c0,1.1,0.056,1.247,0.687,1.309l0.327,0.031
		c0.067,0.042,0.044,0.23-0.023,0.263c-0.608-0.021-0.991-0.032-1.431-0.032c-0.485,0-0.867,0.021-1.306,0.032
		c-0.067-0.032-0.09-0.199-0.023-0.263l0.191-0.031c0.631-0.104,0.653-0.209,0.653-1.309V36.63c0-1.099-0.078-1.278-0.664-1.32
		l-0.293-0.02c-0.066-0.042-0.044-0.23,0.023-0.263c0.552,0.011,0.934,0.032,1.419,0.032c0.44,0,0.823-0.01,1.307-0.032
		c0.068,0.032,0.09,0.221,0.022,0.263l-0.213,0.02c-0.653,0.064-0.676,0.222-0.676,1.32v1.203c0,0.325,0.023,0.336,0.563,0.336
		h3.222c0.54,0,0.563-0.011,0.563-0.336V36.63c0-1.099-0.024-1.256-0.688-1.32l-0.212-0.02c-0.069-0.042-0.046-0.23,0.021-0.263
		c0.519,0.022,0.902,0.032,1.363,0.032c0.44,0,0.823-0.01,1.33-0.032c0.067,0.032,0.09,0.221,0.022,0.263l-0.237,0.02
		c-0.653,0.064-0.675,0.222-0.675,1.32v3.769c0,1.1,0.022,1.236,0.675,1.309l0.271,0.031c0.066,0.042,0.045,0.23-0.023,0.263
		c-0.541-0.021-0.923-0.032-1.363-0.032c-0.461,0-0.867,0.011-1.363,0.032c-0.067-0.032-0.09-0.199-0.021-0.263l0.212-0.031
		c0.688-0.104,0.688-0.209,0.688-1.309v-1.476c0-0.314-0.024-0.336-0.563-0.336H171.772"/>
	<path fill="#002d72" d="M127.48,44.301c0.926-0.721,2.105-1.075,3.425-1.075c0.686,0,1.648,0.141,2.246,0.305
		c0.152,0.038,0.241,0.063,0.355,0.05c0.012,0.291,0.076,1.087,0.178,1.857c-0.064,0.09-0.254,0.102-0.343,0.026
		c-0.19-0.859-0.761-1.846-2.6-1.846c-1.941,0-3.59,1.227-3.59,3.842c0,2.656,1.688,4.122,3.767,4.122
		c1.636,0,2.36-1.062,2.651-1.809c0.089-0.062,0.279-0.038,0.33,0.051c-0.089,0.657-0.418,1.491-0.609,1.731
		c-0.152,0.026-0.305,0.076-0.444,0.127c-0.279,0.102-1.192,0.291-2.004,0.291c-1.141,0-2.233-0.229-3.159-0.848
		c-1.015-0.694-1.801-1.846-1.801-3.476C125.882,46.247,126.517,45.046,127.48,44.301"/>
	<path fill="#002d72" d="M134.418,48.39c0-2.095,1.649-3.695,3.913-3.695c2.54,0,3.815,1.748,3.815,3.591
		c0,2.113-1.693,3.653-3.815,3.653C135.891,51.938,134.418,50.273,134.418,48.39 M141.047,48.61c0-1.729-0.803-3.592-2.902-3.592
		c-1.144,0-2.627,0.742-2.627,3.036c0,1.549,0.792,3.559,2.958,3.559C139.793,51.613,141.047,50.672,141.047,48.61z"/>
	<path fill="#002d72" d="M154.547,47.489c0-0.648-0.023-1.854-0.212-2.167c-0.077-0.127-0.277-0.199-0.554-0.221l-0.277-0.02
		c-0.066-0.075-0.044-0.21,0.022-0.252c0.421,0.021,0.833,0.03,1.265,0.03c0.467,0,0.766-0.01,1.166-0.03
		c0.088,0.053,0.077,0.188,0.022,0.252l-0.267,0.02c-0.278,0.021-0.489,0.116-0.555,0.252c-0.156,0.345-0.156,1.549-0.156,2.136
		v1.183c0,0.911-0.155,1.874-0.776,2.502c-0.478,0.492-1.299,0.765-2.12,0.765c-0.766,0-1.531-0.137-2.075-0.576
		c-0.587-0.461-0.866-1.225-0.866-2.471v-2.471c0-1.088-0.022-1.267-0.666-1.319l-0.277-0.02c-0.066-0.043-0.044-0.222,0.022-0.252
		c0.555,0.021,0.933,0.03,1.376,0.03c0.455,0,0.821-0.01,1.364-0.03c0.067,0.03,0.089,0.209,0.022,0.252l-0.266,0.02
		c-0.643,0.053-0.666,0.231-0.666,1.319v2.262c0,1.686,0.555,2.796,2.252,2.796c1.61,0,2.22-1.195,2.22-2.786V47.489"/>
	<path fill="#002d72" d="M167.446,46.181c0-0.782-0.049-0.983-0.602-1.025l-0.393-0.038c-0.044-0.04-0.068-0.252,0.013-0.258
		c0.662-0.049,1.498-0.084,2.638-0.084c0.773,0,1.508,0.054,2.061,0.296c0.527,0.223,0.933,0.645,0.933,1.322
		c0,0.76-0.516,1.153-1.252,1.447c0,0.106,0.097,0.138,0.234,0.16c0.662,0.104,1.643,0.632,1.643,1.766
		c0,1.226-1.054,2.05-3.263,2.05c-0.355,0-0.957-0.03-1.471-0.03c-0.54,0-0.957,0.021-1.411,0.03
		c-0.073-0.03-0.098-0.201-0.024-0.264l0.22-0.031c0.65-0.096,0.676-0.212,0.676-1.322V46.181 M168.452,47.587
		c0,0.297,0.011,0.317,0.637,0.297c1.251-0.043,1.926-0.36,1.926-1.354c0-1.035-0.896-1.427-1.828-1.427
		c-0.27,0-0.454,0.021-0.565,0.063c-0.122,0.031-0.17,0.084-0.17,0.274V47.587z M168.452,50.041c0,0.381,0.024,0.92,0.258,1.151
		c0.232,0.244,0.6,0.297,0.968,0.297c1.092,0,1.925-0.423,1.925-1.48c0-0.835-0.49-1.808-2.44-1.808
		c-0.663,0-0.711,0.063-0.711,0.274V50.041z"/>
	<rect x="131.823" y="54.627" fill="#FDB415" width="46.577" height="0.527"/>
	<path fill="#002d72" d="M147.458,41.738l-0.291-0.024c-0.059-0.007-0.111-0.014-0.161-0.021c-0.424-0.076-0.595-0.454-0.795-0.806
		l-1.004-1.751c-0.175-0.29-0.36-0.683-0.757-0.739c1.03-0.123,1.96-0.718,1.96-1.738c0-1.179-1.167-1.706-2.345-1.706
		c-0.707,0-1.352,0.02-2.071,0.02c-0.397,0-0.869-0.02-1.266-0.02c-0.22,0-0.223,0.046-0.223,0.169c0,0.182,0.077,0.131,0.31,0.144
		c0.838,0.047,0.806,0.204,0.806,0.922v4.589c0,0.656,0.057,0.852-0.632,0.914c0,0-0.106,0.011-0.166,0.017l-0.292,0.03
		c-0.07,0.062-0.047,0.23,0.023,0.263c0.155-0.007,0.431-0.018,0.431-0.018c0.382-0.011,0.764-0.04,1.145-0.04
		c0.383,0,0.751,0.029,1.128,0.04l0,0c0.134,0.004,0.276,0.009,0.431,0.015c0.07-0.031,0.093-0.199,0.023-0.262l-0.294-0.027
		c-0.06-0.006-0.163-0.016-0.163-0.016c-0.697-0.047-0.654-0.242-0.654-0.916v-1.728c0-0.103-0.013-0.37,0.062-0.449
		c0.062-0.067,0.174-0.057,0.274-0.057c0.942,0,0.93,0.09,1.377,0.875l1.216,2.188c0.099,0.169,0.173,0.381,0.421,0.381h1.057
		c0.133,0.005,0.272,0.01,0.427,0.016C147.504,41.969,147.528,41.802,147.458,41.738 M143.222,38.298
		c-0.21,0-0.633,0.079-0.633-0.201v-2.008c0-0.786,0.025-0.896,0.968-0.896c1.104,0,1.787,0.561,1.787,1.592
		c0,0.448-0.162,0.863-0.571,1.144C144.301,38.254,143.793,38.298,143.222,38.298z"/>
	<path fill="#002d72" d="M143.45,46.457c0-1.1-0.023-1.268-0.749-1.319l-0.288-0.021c-0.069-0.041-0.046-0.23,0.023-0.263
		c0.645,0.022,1.036,0.032,1.497,0.032c0.449,0,0.841-0.01,1.417-0.031c0.069,0.031,0.092,0.221,0.023,0.262l-0.277,0.021
		c-0.679,0.052-0.702,0.22-0.702,1.319v3.644c0,0.66,0.034,0.931,0.242,1.13c0.126,0.115,0.346,0.241,1.255,0.241
		c0.979,0,1.221-0.042,1.405-0.137c0.23-0.125,0.53-0.502,0.76-1.036c0.069-0.052,0.288-0.011,0.288,0.062
		c0,0.116-0.322,1.184-0.484,1.466c-0.587-0.021-1.681-0.032-2.867-0.032h-1.061c-0.483,0-0.852,0.012-1.497,0.032
		c-0.069-0.032-0.092-0.198-0.023-0.262l0.346-0.03c0.667-0.063,0.69-0.209,0.69-1.309V46.457"/>
	<path fill="#002d72" d="M174.3,46.477c0-1.109-0.023-1.287-0.69-1.339l-0.282-0.021c-0.069-0.041-0.045-0.23,0.023-0.263
		c0.564,0.022,0.949,0.032,1.423,0.032c0.452,0,0.838-0.01,1.404-0.031c0.066,0.031,0.089,0.221,0.021,0.262l-0.282,0.021
		c-0.667,0.052-0.691,0.229-0.691,1.339v3.729c0,1.108,0.023,1.256,0.691,1.33l0.282,0.03c0.068,0.043,0.045,0.229-0.021,0.262
		c-0.565-0.021-0.952-0.032-1.404-0.032c-0.474,0-0.859,0.012-1.423,0.032c-0.068-0.032-0.092-0.198-0.023-0.262l0.282-0.03
		c0.667-0.074,0.69-0.222,0.69-1.33V46.477"/>
	<path fill="#002d72" d="M165.266,51.532c-0.059-0.006-0.167-0.015-0.167-0.015c-0.12-0.013-0.227-0.03-0.311-0.121
		c-0.147-0.157-0.135-0.602-0.135-0.777V46.03c0-0.2-0.049-0.633,0.097-0.79c0.074-0.08,0.227-0.095,0.362-0.103l0,0
		c0.083-0.006,0.085-0.006,0.158-0.011l0.29-0.021c0.07-0.042,0.046-0.23-0.023-0.262c-0.155,0.006-0.296,0.003-0.43,0.007v0.001
		h-1.236c-0.134,0-0.257,0-0.33,0.145l-2.517,5.243l-2.223-5.064c-0.074-0.179-0.085-0.323-0.318-0.323h-1.286
		c-0.134-0.004-0.281-0.002-0.437-0.008c-0.07,0.031-0.093,0.22-0.023,0.262l0.291,0.021c0.059,0.005,0.168,0.012,0.168,0.012
		c0.482,0.032,0.512,0.141,0.468,0.647l-0.378,4.92c-0.033,0.495-0.06,0.756-0.578,0.803c0,0-0.109,0.015-0.169,0.021l-0.291,0.03
		c-0.07,0.062-0.047,0.231,0.023,0.263c0.153-0.007,0.425-0.015,0.425-0.015c0.262-0.012,0.53-0.035,0.796-0.035
		c0.29,0,0.578,0.027,0.867,0.038l0,0c0.133,0.005,0.274,0.009,0.43,0.016c0.069-0.032,0.092-0.199,0.023-0.263l-0.291-0.03
		c-0.077-0.006-0.163-0.015-0.163-0.015c-0.747-0.051-0.73-0.58-0.683-1.224l0.354-4.576h0.085l2.407,5.631
		c0.025,0.078,0.061,0.211,0.184,0.211c0.11,0,0.146-0.122,0.182-0.2l2.713-5.774h0.085v5.032c0,0.198,0.024,0.609-0.183,0.766
		c-0.109,0.081-0.462,0.129-0.462,0.129c-0.048,0.008-0.099,0.015-0.157,0.021l-0.29,0.03c-0.07,0.063-0.046,0.229,0.023,0.262
		c0.153-0.005,0.424-0.015,0.424-0.015c0.395-0.011,0.795-0.039,1.195-0.039c0.288,0,0.852,0.027,0.852,0.027
		c0.135,0.004,0.288,0.018,0.442,0.024c0.07-0.032,0.094-0.199,0.024-0.263L165.266,51.532"/>
	<path fill="#002d72" d="M184.146,51.561l-0.04-0.03c-0.058-0.008-0.108-0.015-0.158-0.023c-0.453-0.101-0.629-0.646-0.796-1.033
		l-2.331-5.515c-0.022-0.066-0.069-0.209-0.161-0.209c-0.127,0-0.162,0.154-0.195,0.241l-2.226,5.504
		c-0.082,0.208-0.29,0.715-0.439,0.867c-0.115,0.119-0.265,0.14-0.424,0.157c0,0-0.126,0.012-0.186,0.018l-0.274,0.028
		c-0.07,0.063-0.046,0.229,0.023,0.262c0.155-0.005,0.432-0.016,0.432-0.016c0.304-0.004,0.609-0.042,0.914-0.042
		c0.256,0,0.512,0.027,0.769,0.038c0,0,0.275,0.009,0.43,0.017c0.07-0.032,0.093-0.2,0.024-0.263l-0.292-0.031
		c-0.058-0.006-0.159-0.017-0.159-0.017c-0.267-0.028-0.601-0.077-0.601-0.371c0-0.197,0.093-0.429,0.162-0.604l0.345-0.822
		c0.173-0.396,0.104-0.441,0.566-0.441h1.569c0.553,0,0.472,0,0.715,0.562l0.369,0.835c0.058,0.144,0.161,0.385,0.161,0.539
		c0,0.275-0.301,0.293-0.582,0.318c0,0-0.094,0.008-0.174,0.013l-0.28,0.02c-0.069,0.062-0.046,0.231,0.023,0.263
		c0.156-0.007,0.431-0.017,0.431-0.017c0.328-0.014,0.659-0.037,0.975-0.037c0.404,0,0.808,0.027,1.212,0.038l0,0
		c0.133,0.004,0.021,0.009,0.173,0.015C184.192,51.791,184.215,51.623,184.146,51.561 M181.094,48.968h-1.359
		c-0.047,0-0.426,0.046-0.426-0.064c0-0.034,0.024-0.101,0.037-0.134l0.816-2.021c0.023-0.055,0.105-0.332,0.201-0.332
		c0.07,0,0.164,0.288,0.188,0.332l0.803,1.887c0,0.023,0.083,0.2,0.083,0.245C181.437,49.003,181.166,48.968,181.094,48.968z"/>
	<path fill="#FFFFFF" d="M138.856,27.696c7.36,0,17.54,4.145,24.926,4.145c5.271,0,10.416-1.407,13.343-3.479
		c0.204-1.216,0.312-2.465,0.312-3.739c0-12.369-10.026-22.396-22.395-22.396c-12.369,0-22.396,10.027-22.396,22.396
		c0,1.26,0.106,2.494,0.306,3.698C133.759,28.17,136.504,27.696,138.856,27.696"/>
	<polyline fill="#FDB415" points="169.51,19.444 170.396,19.811 172.358,18.441 169.51,19.444 	"/>
	<path fill="#FDB415" d="M136.513,17.914l-2.327-0.819l0.117-0.285l2.621,0.875l0.012-0.007l0.346-0.196l0.138-0.087l-2.858-1.216
		l0.121-0.299l6.379,2.581l0.211-0.087l-6.328-3.083l0.142-0.29l6.705,3.121l0.093-0.047l-6.502-3.688l0.134-0.277l9.389,5.108
		c0.077-0.142,0.237-0.401,0.321-0.541c-3.57-3.356-7.014-5.876-7.014-5.876s3.542,2.373,7.914,4.578
		c0.144-0.18,0.263-0.325,0.417-0.497l-8.01-7.051l0.215-0.221l6.464,5.509l-5.989-5.998l0.224-0.232l6.724,6.499l-6.259-6.947
		l0.239-0.215l5.786,6.194l-5.28-6.653l0.227-0.207l6.769,8.237c0.175-0.152,0.32-0.265,0.503-0.405
		c-2.047-4.431-4.283-8.035-4.283-8.035s2.379,3.503,5.591,7.172c0.196-0.111,0.396-0.216,0.598-0.316l-0.035-0.022l-4.743-9.466
		l0.282-0.124l3.93,7.53l-3.305-7.805l0.294-0.131l3.8,8.544l-3.202-8.786l0.303-0.11l3.043,7.911l-2.404-8.147l0.289-0.106
		l3.164,10.104l-0.006,0.026l0.008-0.002c0.211-0.071,0.425-0.133,0.64-0.192c-0.241-4.854-0.959-9.005-0.959-9.005
		s0.889,4.116,2.483,8.704c0.222-0.027,0.445-0.05,0.67-0.065l-0.007-0.011h0.028l-0.016-0.023l-0.853-10.554l0.309-0.01
		l0.823,8.454l-0.141-8.475l0.322-0.011l0.322,9.346l0.323-9.346l0.323,0.011l-0.143,8.475l0.823-8.454l0.309,0.01l-0.852,10.554
		l-0.016,0.023h0.004l-0.002,0.003h0.014c0.221,0.013,0.439,0.036,0.656,0.062c1.592-4.584,2.479-8.693,2.479-8.693
		s-0.716,4.14-0.958,8.984c0.217,0.058,0.433,0.12,0.645,0.19l3.153-10.069l0.288,0.106l-2.403,8.147l3.044-7.911l0.302,0.111
		l-3.201,8.786l3.8-8.544l0.295,0.131l-3.306,7.805l3.93-7.53l0.282,0.124l-4.727,9.433l0.008,0.003
		c0.194,0.094,0.386,0.196,0.575,0.3c3.196-3.657,5.563-7.14,5.563-7.14s-2.221,3.579-4.262,7.988
		c0.182,0.138,0.36,0.28,0.533,0.428l6.689-8.146l0.228,0.206l-5.28,6.653l5.785-6.195l0.239,0.216l-6.259,6.947l6.724-6.499
		l0.225,0.233l-5.989,5.998l6.464-5.51l0.215,0.22l-7.912,6.972l0.004,0.005c0.138,0.154,0.271,0.312,0.402,0.474
		c4.345-2.197,7.855-4.548,7.855-4.548s-3.411,2.496-6.963,5.828c0.098,0.163,0.254,0.439,0.345,0.607l9.255-5.04l0.134,0.277
		l-7.389,4.19l7.685-3.577l0.141,0.29l-7.158,3.488l0.14,0.048l7.282-2.945l0.121,0.299l-6.771,2.879l0.128,0.053l4.511-1.504
		l0.68-0.475l0.225,0.173l1.485-0.495l0.116,0.285l-1.285,0.452l1.856,1.417l0.595,0.331c-2.385-9.973-11.356-17.387-22.061-17.387
		c-10.892,0-19.99,7.678-22.181,17.915c0.029-0.013,0.056-0.026,0.084-0.04l0.272-0.124l0.166-0.078L136.513,17.914"/>
	<path fill="#606D9C" d="M132.733,28.804c0,0,3.347-0.668,6.14-0.668c7.36,0,17.539,4.144,24.927,4.144
		c5.418,0,10.703-1.486,13.583-3.654c0.225-1.282,0.343-2.601,0.343-3.948c0-1.823-0.217-3.597-0.623-5.296l-3.08-1.717
		l-3.614,2.534l-2.43-0.946c-0.823,0.415-5.899,3.81-5.899,3.81l-1.948-1.411l-2.089-0.414l-2.789-2.03l-3.197,2.195
		c0,0-3.568,2.071-3.69,2.071c-0.123,0-4.305-3.314-4.305-3.314l-1.926-2.03c-0.328,0.208-1.638,0.809-1.638,0.809l-0.067,0.018
		l-1.269-0.392l-1.54-0.817l-4.677,2.121c-0.028,0.013-0.056,0.026-0.084,0.04c-0.329,1.538-0.503,3.133-0.503,4.768
		C132.358,26.086,132.488,27.465,132.733,28.804"/>
	<path fill="#002d72" d="M133.37,58.925c0.925-0.723,2.104-1.077,3.423-1.077c0.685,0,1.647,0.141,2.243,0.305
		c0.152,0.037,0.241,0.062,0.355,0.05c0.012,0.293,0.076,1.09,0.177,1.862c-0.063,0.09-0.253,0.103-0.342,0.026
		c-0.19-0.861-0.761-1.851-2.599-1.851c-1.939,0-3.587,1.23-3.587,3.853c0,2.662,1.686,4.134,3.765,4.134
		c1.635,0,2.357-1.066,2.649-1.813c0.088-0.063,0.279-0.039,0.33,0.051c-0.089,0.66-0.419,1.496-0.608,1.737
		c-0.152,0.025-0.304,0.075-0.444,0.126c-0.278,0.102-1.19,0.291-2.002,0.291c-1.141,0-2.231-0.228-3.157-0.849
		c-1.014-0.698-1.8-1.852-1.8-3.485C131.772,60.877,132.406,59.673,133.37,58.925"/>
	<path fill="#002d72" d="M142.944,63.792c0.191-0.063,0.216-0.177,0.216-0.366l0.013-0.585c0.013-0.468-0.14-1.103-0.925-1.103
		c-0.355,0-0.786,0.179-0.812,0.57c-0.013,0.204-0.026,0.356-0.126,0.431c-0.19,0.151-0.533,0.242-0.723,0.242
		c-0.114,0-0.177-0.063-0.177-0.178c0-0.659,1.432-1.56,2.357-1.56c0.913,0,1.357,0.532,1.319,1.483l-0.076,2.206
		c-0.025,0.582,0.089,1.103,0.583,1.103c0.126,0,0.241-0.039,0.316-0.076c0.063-0.038,0.127-0.089,0.165-0.089
		c0.051,0,0.088,0.076,0.088,0.165c0,0.062-0.443,0.557-1.064,0.557c-0.304,0-0.608-0.114-0.825-0.392
		c-0.05-0.077-0.126-0.179-0.202-0.179c-0.089,0-0.241,0.114-0.495,0.254c-0.279,0.152-0.558,0.316-0.913,0.316
		c-0.367,0-0.671-0.1-0.887-0.29c-0.24-0.216-0.393-0.533-0.393-0.889c0-0.494,0.241-0.785,1.052-1.076L142.944,63.792
		 M142.158,66.022c0.253,0,0.646-0.19,0.773-0.315c0.152-0.152,0.152-0.331,0.165-0.597l0.025-0.747c0-0.14-0.05-0.166-0.127-0.166
		c-0.076,0-0.292,0.05-0.52,0.127c-0.748,0.254-1.116,0.444-1.116,0.938C141.359,65.477,141.512,66.022,142.158,66.022z"/>
	<path fill="#002d72" d="M146.151,62.779c0-0.495,0-0.56-0.341-0.787l-0.115-0.075c-0.05-0.052-0.05-0.191,0.013-0.229
		c0.291-0.102,1.014-0.431,1.267-0.621c0.05,0,0.114,0.025,0.14,0.09c-0.025,0.29-0.025,0.48-0.025,0.596
		c0,0.075,0.051,0.14,0.139,0.14c0.533-0.329,1.128-0.647,1.774-0.647c1.052,0,1.483,0.723,1.483,1.571v2.181
		c0,0.913,0.025,1.04,0.482,1.103l0.279,0.038c0.089,0.064,0.063,0.279-0.026,0.316c-0.38-0.024-0.747-0.037-1.191-0.037
		c-0.457,0-0.836,0.013-1.179,0.037c-0.088-0.037-0.114-0.252-0.026-0.316l0.24-0.038c0.47-0.076,0.483-0.189,0.483-1.103v-1.889
		c0-0.723-0.331-1.255-1.192-1.255c-0.481,0-0.9,0.203-1.077,0.444c-0.165,0.216-0.19,0.392-0.19,0.76v1.939
		c0,0.913,0.025,1.026,0.481,1.103l0.229,0.038c0.089,0.064,0.063,0.279-0.026,0.316c-0.342-0.024-0.709-0.037-1.153-0.037
		c-0.456,0-0.837,0.013-1.192,0.037c-0.089-0.037-0.114-0.252-0.025-0.316l0.266-0.038c0.47-0.062,0.482-0.189,0.482-1.103V62.779"
		/>
	<path fill="#002d72" d="M154.393,63.792c0.19-0.063,0.216-0.177,0.216-0.366l0.013-0.585c0.012-0.468-0.14-1.103-0.925-1.103
		c-0.355,0-0.786,0.179-0.811,0.57c-0.013,0.204-0.026,0.356-0.127,0.431c-0.189,0.151-0.532,0.242-0.722,0.242
		c-0.115,0-0.178-0.063-0.178-0.178c0-0.659,1.432-1.56,2.357-1.56c0.914,0,1.357,0.532,1.319,1.483l-0.076,2.206
		c-0.025,0.582,0.088,1.103,0.583,1.103c0.127,0,0.241-0.039,0.316-0.076c0.063-0.038,0.127-0.089,0.166-0.089
		c0.051,0,0.088,0.076,0.088,0.165c0,0.062-0.443,0.557-1.065,0.557c-0.303,0-0.607-0.114-0.823-0.392
		c-0.051-0.077-0.127-0.179-0.202-0.179c-0.089,0-0.241,0.114-0.494,0.254c-0.279,0.152-0.558,0.316-0.914,0.316
		c-0.368,0-0.671-0.1-0.887-0.29c-0.24-0.216-0.393-0.533-0.393-0.889c0-0.494,0.24-0.785,1.052-1.076L154.393,63.792
		 M153.608,66.022c0.253,0,0.646-0.19,0.773-0.315c0.152-0.152,0.152-0.331,0.164-0.597l0.026-0.747c0-0.14-0.05-0.166-0.127-0.166
		c-0.075,0-0.291,0.05-0.519,0.127c-0.748,0.254-1.116,0.444-1.116,0.938C152.809,65.477,152.961,66.022,153.608,66.022z"/>
	<path fill="#002d72" d="M161.702,64.566c0,1,0.014,1.47,0.368,1.47c0.139,0,0.355-0.064,0.544-0.127
		c0.089,0.023,0.102,0.343-0.012,0.404c-0.533,0.077-1.319,0.268-1.673,0.405c-0.077,0-0.14-0.036-0.14-0.101v-0.215
		c0-0.191,0-0.343-0.025-0.393h-0.051c-0.557,0.38-0.988,0.582-1.597,0.582c-1.407,0-2.345-1.103-2.345-2.434
		c0-1.774,1.343-2.915,3.067-2.915c0.431,0,0.71,0.063,0.849,0.115c0.064,0,0.077-0.077,0.077-0.179v-1.914
		c0-0.748-0.013-0.822-0.393-1.052l-0.127-0.076c-0.062-0.039-0.062-0.215,0-0.253c0.317-0.102,0.914-0.292,1.37-0.533
		c0.051,0,0.102,0.025,0.127,0.076c-0.014,0.38-0.039,1.016-0.039,1.572V64.566 M160.765,62.665c0-0.255-0.051-0.368-0.14-0.496
		c-0.19-0.266-0.57-0.532-1.064-0.532c-1.153,0-1.749,1.002-1.749,2.104c0,1.153,0.646,2.245,1.889,2.245
		c0.342,0,0.773-0.154,0.975-0.356c0.077-0.075,0.089-0.266,0.089-0.47V62.665z"/>
	<path fill="#002d72" d="M165.741,63.792c0.19-0.063,0.215-0.177,0.215-0.366l0.013-0.585c0.013-0.468-0.139-1.103-0.925-1.103
		c-0.355,0-0.786,0.179-0.812,0.57c-0.013,0.204-0.025,0.356-0.126,0.431c-0.189,0.151-0.532,0.242-0.723,0.242
		c-0.114,0-0.178-0.063-0.178-0.178c0-0.659,1.433-1.56,2.357-1.56c0.914,0,1.356,0.532,1.319,1.483l-0.076,2.206
		c-0.025,0.582,0.088,1.103,0.583,1.103c0.126,0,0.241-0.039,0.317-0.076c0.063-0.038,0.126-0.089,0.165-0.089
		c0.05,0,0.088,0.076,0.088,0.165c0,0.062-0.444,0.557-1.066,0.557c-0.303,0-0.607-0.114-0.823-0.392
		c-0.051-0.077-0.127-0.179-0.203-0.179c-0.089,0-0.242,0.114-0.495,0.254c-0.278,0.152-0.557,0.316-0.913,0.316
		c-0.368,0-0.671-0.1-0.887-0.29c-0.241-0.216-0.393-0.533-0.393-0.889c0-0.494,0.24-0.785,1.052-1.076L165.741,63.792
		 M164.955,66.022c0.254,0,0.647-0.19,0.774-0.315c0.153-0.152,0.153-0.331,0.165-0.597l0.025-0.747c0-0.14-0.05-0.166-0.127-0.166
		c-0.075,0-0.291,0.05-0.519,0.127c-0.749,0.254-1.115,0.444-1.115,0.938C164.157,65.477,164.308,66.022,164.955,66.022z"/>
	<path fill="#F04D2F" d="M176.085,64.369c0.017-0.054,0.055-0.113,0.129-0.19l0.423-0.357l1.716-1.398l-0.395-0.245
		c-0.115-0.081-0.122-0.175-0.059-0.369l0.398-1.304l-1.033,0.217c-0.286,0.07-0.369,0-0.44-0.16l-0.289-0.584l-1.008,1.144
		c-0.01,0.009-0.019,0.02-0.03,0.029c-0.009,0.009-0.017,0.017-0.026,0.023c-0.015,0.012-0.028,0.019-0.042,0.028
		c-0.162,0.087-0.332-0.054-0.264-0.31l0.488-2.4l-0.752,0.435c-0.106,0.064-0.216,0.08-0.291-0.013
		c-0.011-0.015-0.026-0.025-0.039-0.048l-0.089-0.176l-0.694-1.418l-0.017,0.029l-0.01-0.019l-0.431,0.882l-0.354,0.688
		c-0.097,0.166-0.178,0.151-0.336,0.073l-0.083-0.04l-0.661-0.384l0.489,2.4c0.08,0.307-0.177,0.451-0.357,0.235l-1.013-1.149
		l-0.288,0.584c-0.072,0.16-0.155,0.229-0.441,0.16l-1.031-0.218l0.397,1.306c0.063,0.193,0.056,0.287-0.061,0.368l-0.394,0.244
		l2.142,1.745c0.18,0.152,0.163,0.312,0.083,0.537l-0.235,0.595l1.756-0.339c-0.001,0.002-0.002,0.006-0.002,0.007l0.217-0.039
		c0.059-0.013,0.111-0.023,0.16-0.028c0.003,0,0.008-0.002,0.01-0.002c0.022-0.001,0.037,0.002,0.055,0.004
		c0.114,0.009,0.167,0.059,0.167,0.182l-0.072,1.646h0.585l-0.06-1.657c0-0.051,0.01-0.087,0.028-0.116
		c0.066-0.062,0.194-0.054,0.363-0.016l1.953,0.359l-0.007-0.017l0.026,0.005l-0.129-0.325l-0.083-0.258
		c-0.038-0.112-0.07-0.188-0.077-0.258c-0.001-0.009-0.002-0.018-0.002-0.025c0.001-0.016,0.001-0.033,0.005-0.048
		C176.083,64.38,176.085,64.374,176.085,64.369"/>
</g>
<g>
	<path fill="#002d72" d="M215.282,38.351h-4.854V19.496h-6.217v-4.04h17.288v4.04h-6.217V38.351z M229.395,29.565v8.785h-4.854
		V15.456h6.671c3.111,0,5.413,0.566,6.906,1.699c1.493,1.133,2.239,2.853,2.239,5.16c0,1.347-0.371,2.545-1.112,3.594
		c-0.741,1.049-1.791,1.871-3.147,2.466c3.444,5.147,5.689,8.472,6.733,9.976h-5.388l-5.464-8.785H229.395L229.395,29.565z
		 M229.395,25.619h1.566c1.535,0,2.667-0.256,3.398-0.767c0.73-0.511,1.096-1.315,1.096-2.412c0-1.086-0.373-1.858-1.12-2.318
		c-0.747-0.459-1.903-0.689-3.469-0.689h-1.472L229.395,25.619L229.395,25.619z M259.247,38.351l-1.66-5.451h-8.347l-1.66,5.451
		h-5.23l8.08-22.989h5.936l8.111,22.989H259.247z M256.428,28.829c-1.535-4.938-2.398-7.73-2.592-8.378
		c-0.193-0.647-0.332-1.159-0.415-1.535c-0.345,1.336-1.331,4.641-2.96,9.913H256.428z M285.873,26.684
		c0,3.769-1.073,6.655-3.218,8.66c-2.146,2.005-5.243,3.007-9.294,3.007h-6.483V15.456h7.188c3.736,0,6.64,0.987,8.707,2.96
		C284.84,20.389,285.873,23.145,285.873,26.684z M280.83,26.809c0-4.917-2.172-7.376-6.514-7.376h-2.584v14.908h2.082
		C278.492,34.341,280.83,31.83,280.83,26.809z M303.32,38.351h-13.184V15.456h13.184v3.978h-8.329v5.027h7.751v3.978h-7.751v5.904
		h8.329V38.351z"/>
	<path fill="#002d72" d="M209.654,46.188h3.897c1.775,0,3.064,0.252,3.867,0.758c0.802,0.505,1.203,1.309,1.203,2.41
		c0,0.748-0.175,1.362-0.527,1.842c-0.351,0.479-0.818,0.768-1.4,0.865v0.086c0.794,0.177,1.366,0.508,1.717,0.992
		c0.351,0.485,0.527,1.131,0.527,1.936c0,1.142-0.413,2.033-1.238,2.672c-0.825,0.641-1.945,0.959-3.361,0.959h-4.684
		L209.654,46.188L209.654,46.188z M212.309,51.146h1.542c0.719,0,1.24-0.11,1.563-0.334c0.322-0.223,0.484-0.59,0.484-1.104
		c0-0.479-0.175-0.823-0.527-1.032c-0.351-0.208-0.906-0.312-1.666-0.312h-1.396V51.146L212.309,51.146z M212.309,53.253v3.264h1.73
		c0.731,0,1.27-0.141,1.619-0.42c0.348-0.281,0.522-0.709,0.522-1.285c0-1.039-0.742-1.56-2.227-1.56L212.309,53.253L212.309,53.253
		z M229.88,53.903v4.805h-2.655v-12.52h3.648c1.701,0,2.96,0.31,3.777,0.929c0.815,0.62,1.225,1.56,1.225,2.821
		c0,0.736-0.203,1.393-0.607,1.965c-0.406,0.574-0.979,1.024-1.722,1.35c1.884,2.814,3.111,4.633,3.683,5.455h-2.946l-2.989-4.805
		H229.88L229.88,53.903z M229.88,51.746h0.856c0.839,0,1.459-0.14,1.858-0.42c0.4-0.28,0.6-0.72,0.6-1.319
		c0-0.594-0.204-1.016-0.612-1.267s-1.04-0.378-1.897-0.378h-0.805L229.88,51.746L229.88,51.746z M244.592,58.708v-12.52h2.655
		v12.52H244.592z M261.016,58.708h-2.654V48.397h-3.4v-2.209h9.454v2.209h-3.399V58.708L261.016,58.708z M272.13,58.708v-12.52
		h2.655v12.52H272.13z M291.115,55.231c0,1.129-0.407,2.021-1.221,2.672c-0.813,0.65-1.945,0.976-3.396,0.976
		c-1.336,0-2.519-0.251-3.545-0.754V55.66c0.845,0.377,1.56,0.642,2.146,0.796c0.584,0.154,1.119,0.23,1.605,0.23
		c0.582,0,1.029-0.11,1.34-0.334c0.311-0.223,0.467-0.554,0.467-0.992c0-0.245-0.068-0.465-0.205-0.655
		c-0.138-0.19-0.339-0.375-0.604-0.552c-0.267-0.178-0.808-0.461-1.623-0.848c-0.765-0.361-1.339-0.705-1.722-1.037
		c-0.383-0.33-0.688-0.716-0.916-1.155s-0.342-0.953-0.342-1.541c0-1.107,0.375-1.979,1.125-2.612s1.789-0.951,3.113-0.951
		c0.651,0,1.271,0.077,1.862,0.231c0.591,0.153,1.209,0.37,1.854,0.651l-0.856,2.063c-0.668-0.274-1.22-0.465-1.657-0.574
		c-0.438-0.108-0.867-0.163-1.289-0.163c-0.503,0-0.888,0.117-1.156,0.352c-0.268,0.233-0.402,0.539-0.402,0.916
		c0,0.233,0.054,0.438,0.162,0.611s0.281,0.344,0.519,0.506s0.798,0.455,1.683,0.877c1.17,0.561,1.973,1.121,2.406,1.684
		C290.898,53.726,291.115,54.415,291.115,55.231L291.115,55.231z M309.432,58.708h-2.646v-5.404h-4.958v5.404h-2.655v-12.52h2.655
		v4.906h4.958v-4.906h2.646V58.708z M334.042,48.218c-0.999,0-1.772,0.376-2.321,1.126c-0.548,0.75-0.821,1.798-0.821,3.14
		c0,2.791,1.048,4.188,3.143,4.188c0.879,0,1.944-0.22,3.194-0.658v2.227c-1.028,0.428-2.175,0.642-3.443,0.642
		c-1.821,0-3.215-0.552-4.179-1.657c-0.965-1.104-1.448-2.69-1.448-4.757c0-1.302,0.237-2.442,0.711-3.421
		c0.475-0.979,1.154-1.73,2.043-2.252c0.888-0.523,1.928-0.784,3.122-0.784c1.216,0,2.438,0.294,3.665,0.882l-0.855,2.158
		c-0.469-0.223-0.94-0.417-1.413-0.582C334.963,48.3,334.498,48.218,334.042,48.218L334.042,48.218z M357.05,52.431
		c0,2.072-0.514,3.666-1.541,4.779s-2.501,1.67-4.419,1.67s-3.391-0.557-4.419-1.67s-1.542-2.712-1.542-4.796
		s0.516-3.675,1.546-4.774c1.031-1.099,2.508-1.647,4.433-1.647c1.924,0,3.395,0.554,4.415,1.661
		C356.541,48.76,357.05,50.353,357.05,52.431L357.05,52.431z M347.913,52.431c0,1.399,0.265,2.452,0.797,3.16
		c0.53,0.708,1.324,1.062,2.38,1.062c2.118,0,3.177-1.407,3.177-4.223c0-2.82-1.054-4.23-3.159-4.23
		c-1.058,0-1.854,0.355-2.391,1.066C348.181,49.978,347.913,51.032,347.913,52.431z M365.433,58.708v-12.52h2.655v10.328h5.078
		v2.191H365.433z M391.321,46.188v8.101c0,0.925-0.207,1.735-0.621,2.433c-0.414,0.696-1.012,1.23-1.794,1.601
		s-1.707,0.557-2.775,0.557c-1.609,0-2.859-0.412-3.751-1.237c-0.891-0.826-1.336-1.955-1.336-3.388v-8.067h2.646v7.666
		c0,0.965,0.193,1.672,0.582,2.123s1.03,0.678,1.927,0.678c0.868,0,1.497-0.228,1.888-0.682c0.392-0.453,0.587-1.166,0.587-2.137
		v-7.648h2.647V46.188z M405.475,58.708l-3.014-9.823h-0.077c0.108,1.998,0.163,3.331,0.163,3.999v5.823h-2.372V46.187h3.614
		l2.963,9.574h0.051l3.144-9.574h3.612v12.521h-2.475v-5.926c0-0.28,0.004-0.603,0.013-0.968c0.01-0.365,0.048-1.336,0.116-2.912
		h-0.077l-3.229,9.806L405.475,58.708L405.475,58.708z M422.499,46.188h3.896c1.776,0,3.064,0.252,3.867,0.758
		c0.803,0.505,1.203,1.309,1.203,2.41c0,0.748-0.175,1.362-0.526,1.842s-0.818,0.768-1.4,0.865v0.086
		c0.793,0.177,1.366,0.508,1.717,0.992c0.352,0.485,0.527,1.131,0.527,1.936c0,1.142-0.413,2.033-1.238,2.672
		c-0.825,0.641-1.945,0.959-3.361,0.959h-4.684V46.188L422.499,46.188z M425.154,51.146h1.541c0.719,0,1.239-0.11,1.562-0.334
		c0.323-0.223,0.484-0.59,0.484-1.104c0-0.479-0.176-0.823-0.527-1.032c-0.351-0.208-0.906-0.312-1.665-0.312h-1.396V51.146
		L425.154,51.146z M425.154,53.253v3.264h1.729c0.731,0,1.271-0.141,1.619-0.42c0.348-0.281,0.522-0.709,0.522-1.285
		c0-1.039-0.742-1.56-2.228-1.56L425.154,53.253L425.154,53.253z M440.07,58.708v-12.52h2.654v12.52H440.07z M459.329,58.708
		l-0.907-2.98h-4.564l-0.908,2.98h-2.86l4.419-12.572h3.245l4.438,12.572H459.329L459.329,58.708z M457.787,53.501
		c-0.839-2.7-1.312-4.229-1.417-4.582c-0.106-0.354-0.181-0.634-0.228-0.839c-0.188,0.731-0.728,2.538-1.617,5.421H457.787z"/>
	<path fill="#002d72" d="M357.533,38.351V15.456h4.854v22.895H357.533z M388.012,38.351h-6.17l-9.96-17.32h-0.141
		c0.198,3.059,0.298,5.241,0.298,6.546v10.774h-4.338V15.456h6.123l9.943,17.146h0.11c-0.157-2.975-0.235-5.079-0.235-6.311V15.456
		h4.369V38.351L388.012,38.351z M406.386,15.456h4.901l-7.783,22.895h-5.293l-7.767-22.895h4.9l4.307,13.624
		c0.239,0.804,0.487,1.741,0.743,2.812c0.256,1.069,0.415,1.813,0.479,2.23c0.115-0.96,0.506-2.641,1.174-5.042L406.386,15.456z
		 M426.905,38.351H413.72V15.456h13.186v3.978h-8.331v5.027h7.751v3.978h-7.751v5.904h8.331V38.351z M444.747,31.992
		c0,2.067-0.744,3.696-2.232,4.886c-1.487,1.189-3.558,1.785-6.209,1.785c-2.442,0-4.604-0.459-6.482-1.378v-4.511
		c1.545,0.689,2.852,1.175,3.923,1.457c1.07,0.281,2.048,0.422,2.936,0.422c1.065,0,1.883-0.203,2.451-0.61
		c0.569-0.407,0.854-1.012,0.854-1.817c0-0.449-0.125-0.848-0.376-1.197c-0.251-0.351-0.619-0.687-1.104-1.01
		c-0.484-0.324-1.475-0.841-2.967-1.551c-1.399-0.658-2.448-1.289-3.148-1.895c-0.699-0.605-1.258-1.31-1.676-2.114
		c-0.418-0.804-0.626-1.743-0.626-2.819c0-2.025,0.687-3.617,2.06-4.776c1.372-1.159,3.27-1.738,5.691-1.738
		c1.19,0,2.325,0.141,3.406,0.423c1.081,0.282,2.21,0.679,3.39,1.19l-1.565,3.774c-1.222-0.501-2.231-0.851-3.03-1.049
		c-0.799-0.198-1.585-0.298-2.357-0.298c-0.919,0-1.624,0.214-2.113,0.642c-0.491,0.428-0.736,0.987-0.736,1.676
		c0,0.428,0.099,0.801,0.298,1.12c0.198,0.319,0.514,0.626,0.947,0.924c0.433,0.298,1.459,0.833,3.077,1.605
		c2.14,1.023,3.606,2.049,4.399,3.077C444.35,29.239,444.747,30.499,444.747,31.992L444.747,31.992z M457.279,38.351h-4.854V19.496
		h-6.217v-4.04h17.288v4.04h-6.217V38.351L457.279,38.351z"/>
	<path fill="#002d72" d="M321.753,38.495l-0.347-1.641h-0.084c-0.575,0.723-1.149,1.211-1.721,1.468
		c-0.571,0.256-1.285,0.384-2.141,0.384c-1.144,0-2.04-0.295-2.688-0.884c-0.649-0.589-0.974-1.427-0.974-2.515
		c0-2.33,1.862-3.55,5.587-3.662l1.957-0.062v-0.715c0-0.905-0.193-1.573-0.584-2.004c-0.389-0.432-1.012-0.647-1.867-0.647
		c-0.961,0-2.048,0.295-3.262,0.884l-0.537-1.335c0.568-0.309,1.191-0.551,1.868-0.726s1.355-0.263,2.036-0.263
		c1.375,0,2.393,0.305,3.057,0.915c0.663,0.61,0.994,1.589,0.994,2.935v7.87L321.753,38.495L321.753,38.495z M317.807,37.265
		c1.087,0,1.941-0.299,2.562-0.895s0.931-1.432,0.931-2.504v-1.042l-1.747,0.073c-1.389,0.05-2.39,0.266-3.004,0.647
		s-0.921,0.978-0.921,1.783c0,0.631,0.191,1.112,0.574,1.44C316.585,37.101,317.119,37.265,317.807,37.265L317.807,37.265z
		 M334.234,38.495v-7.46c0-0.94-0.215-1.642-0.643-2.104s-1.098-0.694-2.009-0.694c-1.207,0-2.091,0.326-2.651,0.978
		c-0.561,0.652-0.842,1.729-0.842,3.229v6.051h-1.747V26.964h1.42l0.284,1.578h0.084c0.358-0.568,0.859-1.008,1.504-1.32
		c0.646-0.312,1.364-0.468,2.157-0.468c1.389,0,2.434,0.335,3.135,1.005c0.701,0.67,1.052,1.741,1.052,3.215v7.522L334.234,38.495
		L334.234,38.495z M347.116,36.949h-0.096c-0.806,1.172-2.013,1.757-3.618,1.757c-1.509,0-2.682-0.516-3.52-1.547
		s-1.258-2.497-1.258-4.398c0-1.9,0.421-3.377,1.263-4.429c0.843-1.052,2.014-1.578,3.515-1.578c1.563,0,2.763,0.568,3.598,1.704
		h0.137l-0.074-0.831l-0.042-0.81v-4.692h1.747v16.371h-1.42L347.116,36.949z M343.623,37.243c1.191,0,2.057-0.324,2.594-0.973
		c0.536-0.649,0.805-1.696,0.805-3.142v-0.368c0-1.634-0.271-2.8-0.814-3.498c-0.544-0.698-1.412-1.047-2.604-1.047
		c-1.023,0-1.808,0.398-2.351,1.194c-0.544,0.796-0.816,1.92-0.816,3.372c0,1.473,0.271,2.585,0.811,3.335
		C341.785,36.868,342.578,37.243,343.623,37.243L343.623,37.243z"/>
</g>
</svg>
